<svg height="512" viewBox="0 0 60 58" width="512" xmlns="http://www.w3.org/2000/svg"><g id="Page-1" fill="none" fill-rule="evenodd"><g id="067---Crying-Laughter-Star" fill="rgb(125,50,50)" fill-rule="nonzero" transform="translate(0 -1)"><path id="Shape" d="m58.711 27.912c1.2196625-1.4489963 1.6024638-3.4260381 1.0117895-5.2255577-.5906742-1.7995196-2.0706638-3.165119-3.9117895-3.6094423l-12.354-3.018c-.8985465-.2200504-1.6737986-.7861246-2.157-1.575l-6.6-10.848c-.9976036-1.6413862-2.7792289-2.64342863-4.7-2.64342863s-3.7023964 1.00204243-4.7 2.64342863l-6.6 10.848c-.4827333.7884528-1.2571931 1.3544733-2.155 1.575l-12.357 3.018c-1.84112566.4443233-3.32111531 1.8099227-3.91178955 3.6094423s-.20787296 3.7765614 1.01178955 5.2255577l8.312 9.859c.5849421.6930132.8724707 1.589024.8 2.493l-.98 12.841c-.13955426 1.9044141.7202855 3.744581 2.2706037 4.8593823 1.5503183 1.1148012 3.5684717 1.3441385 5.3293963.6056177l11.63-4.845c.8645056-.3574632 1.8354944-.3574632 2.7 0l11.63 4.845c1.7681928.7444364 3.7970238.5092316 5.348-.62 1.5478556-1.108673 2.4019697-2.9470482 2.251-4.845l-.979-12.841c-.0724707-.903976.2150579-1.7999868.8-2.493zm-9.835 8.57c-.9251753 1.0927564-1.3815855 2.5065496-1.27 3.934l.98 12.842c.0949568 1.2033929-.4472484 2.3686219-1.429 3.071-.9870901.7202257-2.2789027.8719359-3.406.4l-11.631-4.85c-1.3572637-.56301-2.8827363-.56301-4.24 0l-11.631 4.846c-1.1269546.4729481-2.4192832.3211773-3.406-.4-.9817516-.7023781-1.5239568-1.8676071-1.429-3.071l.98-12.842c.1115855-1.4274504-.3448247-2.8412436-1.27-3.934l-8.306-9.855c-.77203843-.91972-1.01319366-2.1734458-.63744005-3.3139445.37575361-1.1404988 1.31490606-2.0053554 2.48244005-2.2860555l12.355-3.023c1.4117425-.3484436 2.6293439-1.2390998 3.389-2.479l6.6-10.848c.6352537-1.04273467 1.7679992-1.67904448 2.989-1.67904448s2.3537463.63630981 2.989 1.67904448l6.6 10.848c.76153 1.2415884 1.982299 2.1324587 3.397 2.479l12.355 3.019c1.167534.2807001 2.1066864 1.1455567 2.48244 2.2860555.3757537 1.1404987.1345984 2.3942245-.63744 3.3139445z"/><path id="Shape" d="m42.023 30.108c-.019-.013-.03-.033-.05-.045s-.032-.008-.047-.015c-.419863-.2515855-.866666-.4551962-1.332-.607-2.783-.863-5.5.166-7.3 1.015-.551.26-1.091.56-1.631.86-1.2016932.8246022-2.5939665 1.3288495-4.045 1.465h-.018c-1.476029-.095605-2.9258457-.4362613-4.29-1.008-.357-.125-.712-.25-1.069-.368-.5449188-.1912154-1.1035095-.3409752-1.671-.448h-.007c-.7781731-.1594584-1.5850922-.1037969-2.334.161-1.4564499.7033931-2.4772883 2.0740945-2.734 3.671-.6650189 3.2225344.1660299 6.5728378 2.26 9.111 2.0495167 2.453742 4.8817268 4.1265823 8.02 4.737 1.1840695.2464555 2.3905575.3691151 3.6.366 1.890538-.0125447 3.7712576-.273102 5.594-.775 2.7673288-.6596356 5.3218266-2.0112072 7.424-3.928 2.1938152-2.0335456 3.4115014-4.9093963 3.345-7.9-.1373912-2.5778975-1.5241131-4.9265527-3.715-6.292zm-19.377 3.552c1.5725875.6510714 3.2443915 1.0301353 4.944 1.121h.024c1.7952429-.1199757 3.5268068-.7126887 5.019-1.718.5-.278 1-.557 1.511-.8 2.38-1.122 4.242-1.411 5.858-.913h.007c-2.967 4.166-8.074 5.489-11.807 6.127-2.245.372-3.8.513-4.959-.8-.7035114-.9765593-1.1738829-2.1013458-1.375-3.288.2593333.09.5186667.1803333.778.271zm11.8 12.64c-.959042.2577997-1.9351562.4472748-2.921.567-.008-.12-.022-.237-.022-.363 0-3.032 2.916-5.5 6.5-5.5 1.3211714-.0037327 2.6181162.3545699 3.75 1.036-.2342143.2867401-.4842709.5601665-.749.819-1.8597884 1.6831935-4.1161546 2.8671149-6.558 3.441zm8.409-5.941c-1.4611134-.8941858-3.1419944-1.3646939-4.855-1.359-4.687 0-8.5 3.364-8.5 7.5 0 .17.02.33.032.495-1.1237822.0165222-2.2460334-.0890975-3.347-.315-2.6869213-.5152622-5.1145848-1.9397269-6.875-4.034-1.6973404-2.069405-2.3826556-4.7882988-1.869-7.415.125-.549.522-1.871 1.5-2.249.2189538-.0801995.4508581-.1191893.684-.115h.031c.062.235.128.467.187.7.2677395 1.6087494.9191174 3.1293171 1.899 4.433 1.0535629 1.1765876 2.5827063 1.8136081 4.16 1.733.9030746-.0224038 1.8027756-.1190631 2.69-.289 4.09-.7 9.781-2.2 13.148-7.075 1.1828025 1.0633872 1.900965 2.5485473 2 4.136.0491395 1.3388715-.2561524 2.6669775-.885 3.85z"/><path id="Shape" d="m23.686 25.909c.380611.205975.8505264.143745 1.1644042-.1541999.3138777-.2979449.4004816-.7639844.2145958-1.1548001-1.6921027-3.6083126-5.7660868-5.439651-9.588-4.31-.5304695.1546397-.8351397.7100305-.6805 1.2405s.7100305.8351397 1.2405.6805c1.8601347-.4896212 3.8414473-.137526 5.419.963-2.607304-.1439648-5.1461223.865273-6.943 2.76-.3558179.408168-.3221143 1.0253979.0760313 1.392396.3981455.3669981 1.0160726.350421 1.3939687-.037396.034-.041 3.473-3.689 7.703-1.38z"/><path id="Shape" d="m33.982 25.909c4.2-2.294 7.564 1.227 7.7 1.376.2391094.2742886.608339.3970456.9640808.320526.3557419-.0765197.6418413-.3402372.7470229-.6885824.1051816-.3483451.0128422-.7263309-.2411037-.9869436-1.798356-1.8925423-4.3361211-2.9013616-6.943-2.76 1.5770733-1.1016835 3.5589166-1.4538731 5.419-.963.5304695.1546397 1.0858602-.1500305 1.2404999-.6805.1546398-.5304695-.1500304-1.0858602-.6804999-1.2405-3.8230322-1.1304264-7.8982401.7031621-9.588 4.314-.1889432.3911786-.1037179.8595983.2108996 1.159158.3146176.2995597.7866509.3617277 1.1681004.153842z"/></g></g></svg>